# xmcd
#
# Track frame offsets: 
#        150
#        15348
#        31788
#        46838
#        57056
#        80027
#        93708
#        110253
#        133840
#        147949
#        166116
#        178452
#        193332
#        202678
#        214646
#        229304
#
# Disc length: 3266 seconds
#
# Revision: 0
# Processed by: cddbd v1.5.2PL0 Copyright (c) Steve Scherf et al.
# Submitted via: ExactAudioCopy v1.3
#
DISCID=d90cc010
DTITLE=Felix Slim - Gatomalo
DYEAR=2012
DGENRE=Blues
TTITLE0=Gatomalo Stomp #1
TTITLE1=Nobody's faoult but mine
TTITLE2=32-20 blues
TTITLE3=Ain't she sweet
TTITLE4=The fruit man
TTITLE5=Hard times blues
TTITLE6=Little Katty
TTITLE7=Write me a few lines
TTITLE8=Ask your mother
TTITLE9=Diggin' my potatoes
TTITLE10=Can't be satisfied
TTITLE11=Sweet Sue
TTITLE12=Woman, don't cry
TTITLE13=High and glad
TTITLE14=Lil' queen of swing
TTITLE15=Gatomalo Stomp #2
EXTD=
EXTT0=
EXTT1=
EXTT2=
EXTT3=
EXTT4=
EXTT5=
EXTT6=
EXTT7=
EXTT8=
EXTT9=
EXTT10=
EXTT11=
EXTT12=
EXTT13=
EXTT14=
EXTT15=
PLAYORDER=
